<svg xmlns="http://www.w3.org/2000/svg" xmlns:xlink="http://www.w3.org/1999/xlink" viewBox="0 0 287.5 52.43"><defs><style>.cls-1{fill:url(#linear-gradient);}.cls-2{fill:url(#linear-gradient-2);}.cls-3{fill:url(#linear-gradient-3);}.cls-4{fill:url(#linear-gradient-4);}.cls-5{fill:url(#linear-gradient-5);}.cls-6{fill:url(#linear-gradient-6);}.cls-7{fill:url(#linear-gradient-7);}.cls-8{fill:url(#linear-gradient-8);}.cls-9{fill:url(#linear-gradient-9);}</style><linearGradient id="linear-gradient" x1="31.24" y1="4.11" x2="46.64" y2="4.11" gradientUnits="userSpaceOnUse"><stop offset="0" stop-color="#1b75bc"/><stop offset="1" stop-color="#27aae1"/></linearGradient><linearGradient id="linear-gradient-2" x1="67.91" y1="26.68" x2="101.93" y2="26.68" xlink:href="#linear-gradient"/><linearGradient id="linear-gradient-3" x1="108.99" y1="26.38" x2="140.07" y2="26.38" xlink:href="#linear-gradient"/><linearGradient id="linear-gradient-4" x1="144.94" y1="26.59" x2="178.85" y2="26.59" xlink:href="#linear-gradient"/><linearGradient id="linear-gradient-5" x1="183.59" y1="26.59" x2="217.5" y2="26.59" xlink:href="#linear-gradient"/><linearGradient id="linear-gradient-6" x1="221.46" y1="26.59" x2="252.6" y2="26.59" xlink:href="#linear-gradient"/><linearGradient id="linear-gradient-7" x1="255.34" y1="26.59" x2="287.5" y2="26.59" xlink:href="#linear-gradient"/><linearGradient id="linear-gradient-8" x1="0" y1="26.21" x2="59.14" y2="26.21" xlink:href="#linear-gradient"/><linearGradient id="linear-gradient-9" x1="37.96" y1="21.34" x2="53.37" y2="21.34" xlink:href="#linear-gradient"/></defs><title>Asset 4</title><g id="Layer_2" data-name="Layer 2"><g id="Layer_1-2" data-name="Layer 1"><rect class="cls-1" x="42.2" y="2.84" width="4.44" height="2.54" rx="1.27"/><path class="cls-2" d="M67.91,49.25V4.17h7.27L94.31,36V4.11h7.62V49.25H94.31L75.18,17.39V49.25Z"/><path class="cls-3" d="M109,49V3.81H128.3a18.62,18.62,0,0,1,3.61.42A9.39,9.39,0,0,1,135.76,6a10.87,10.87,0,0,1,3.05,4,15.89,15.89,0,0,1,1.26,6.91,14.12,14.12,0,0,1-.52,4.11,13,13,0,0,1-1.23,2.88A6.79,6.79,0,0,1,137,25.63a3.86,3.86,0,0,1-.82.62v.3a6.59,6.59,0,0,1,2,1.92,11.08,11.08,0,0,1,1.37,2.9,15,15,0,0,1,.61,4.67,13.76,13.76,0,0,1-1.26,6.24,11.94,11.94,0,0,1-3.05,4,10.94,10.94,0,0,1-3.84,2.08,12.54,12.54,0,0,1-3.62.62H109Zm7.27-26.22h11.56l.83-.12a4.82,4.82,0,0,0,1.69-.67A5.11,5.11,0,0,0,132,20.22a6.17,6.17,0,0,0,.74-3.31A6,6,0,0,0,132,13.6a5.31,5.31,0,0,0-1.7-1.68,5,5,0,0,0-2.46-.75H116.26Zm0,19.13h11.56l.83-.12a4.82,4.82,0,0,0,1.69-.67A5.15,5.15,0,0,0,132,39.34a6.21,6.21,0,0,0,.74-3.3A6.11,6.11,0,0,0,132,32.7a5.9,5.9,0,0,0-1.7-1.77,6.9,6.9,0,0,0-2.46-.93H116.26Z"/><path class="cls-4" d="M144.94,32.82V19.37a19.47,19.47,0,0,1,2-8,17.63,17.63,0,0,1,1.91-2.93,12.5,12.5,0,0,1,2.85-2.59,14.29,14.29,0,0,1,4-1.82A18.71,18.71,0,0,1,161,3.36h1.77a18.64,18.64,0,0,1,5.28.68,14.15,14.15,0,0,1,4,1.82,12.54,12.54,0,0,1,2.86,2.58,16.48,16.48,0,0,1,1.9,2.94,20.13,20.13,0,0,1,2,8V32.82a23.55,23.55,0,0,1-2,8.5,17,17,0,0,1-1.9,3.11,13,13,0,0,1-2.83,2.7,14.71,14.71,0,0,1-3.93,1.94,16.9,16.9,0,0,1-5.3.75H161a17,17,0,0,1-5.29-.75,15.2,15.2,0,0,1-4-1.94,13,13,0,0,1-2.87-2.7,15.4,15.4,0,0,1-1.89-3.11A22,22,0,0,1,144.94,32.82Zm7.27-1.65a14.62,14.62,0,0,0,1.23,5.47,10.48,10.48,0,0,0,1.12,2.07,9.86,9.86,0,0,0,1.73,1.88A9.61,9.61,0,0,0,158.66,42a9.43,9.43,0,0,0,3.19.7l.06.06v-.06a9.66,9.66,0,0,0,3.22-.7,9.23,9.23,0,0,0,2.42-1.44,8.8,8.8,0,0,0,1.7-1.88,15.26,15.26,0,0,0,1.16-2.07,14.62,14.62,0,0,0,1.23-5.47V21.5a13.1,13.1,0,0,0-1.23-5.1,13.43,13.43,0,0,0-1.16-1.94,8.45,8.45,0,0,0-1.7-1.74,9.87,9.87,0,0,0-2.4-1.35,10.48,10.48,0,0,0-3.24-.68v-.12l-.06.12a10.22,10.22,0,0,0-3.19.68,10,10,0,0,0-2.37,1.35,9.23,9.23,0,0,0-1.73,1.75,10.44,10.44,0,0,0-1.12,1.93,13.1,13.1,0,0,0-1.23,5.1Z"/><path class="cls-5" d="M183.59,32.82V19.37a19.47,19.47,0,0,1,2-8,17.63,17.63,0,0,1,1.91-2.93,12.5,12.5,0,0,1,2.85-2.59,14.22,14.22,0,0,1,4-1.82,18.59,18.59,0,0,1,5.3-.68h1.77a18.76,18.76,0,0,1,5.29.68,14.09,14.09,0,0,1,4,1.82,12.54,12.54,0,0,1,2.86,2.58,16.48,16.48,0,0,1,1.9,2.94,20.13,20.13,0,0,1,2.05,8V32.82a23.55,23.55,0,0,1-2.05,8.5,17,17,0,0,1-1.9,3.11,13.19,13.19,0,0,1-2.82,2.7,14.93,14.93,0,0,1-3.94,1.94,16.9,16.9,0,0,1-5.3.75H199.6a17,17,0,0,1-5.29-.75,15.2,15.2,0,0,1-4-1.94,13.23,13.23,0,0,1-2.87-2.7,15.4,15.4,0,0,1-1.89-3.11A22,22,0,0,1,183.59,32.82Zm7.27-1.65a14.62,14.62,0,0,0,1.23,5.47,10.48,10.48,0,0,0,1.12,2.07,9.86,9.86,0,0,0,1.73,1.88A9.49,9.49,0,0,0,197.32,42a9.31,9.31,0,0,0,3.18.7l.06.06v-.06a9.78,9.78,0,0,0,3.23-.7,9.33,9.33,0,0,0,2.41-1.44,8.8,8.8,0,0,0,1.7-1.88,15.26,15.26,0,0,0,1.16-2.07,14.62,14.62,0,0,0,1.23-5.47V21.5a13.1,13.1,0,0,0-1.23-5.1,13.43,13.43,0,0,0-1.16-1.94,8.45,8.45,0,0,0-1.7-1.74,9.87,9.87,0,0,0-2.4-1.35,10.48,10.48,0,0,0-3.24-.68v-.12l-.06.12a10.09,10.09,0,0,0-3.18.68,9.91,9.91,0,0,0-2.38,1.35,9.23,9.23,0,0,0-1.73,1.75,10.44,10.44,0,0,0-1.12,1.93,13.1,13.1,0,0,0-1.23,5.1Z"/><path class="cls-6" d="M221.46,17.09v-.24a15.1,15.1,0,0,1,1.26-6.7,10.8,10.8,0,0,1,3.08-3.89,9.73,9.73,0,0,1,3.82-1.79,17.54,17.54,0,0,1,3.58-.42h17.9v7.24H233.71a5,5,0,0,0-2.46.75,5.19,5.19,0,0,0-1.69,1.68,5.76,5.76,0,0,0-.77,3.25,5.89,5.89,0,0,0,.77,3.31,6.09,6.09,0,0,0,1.69,1.79,6.2,6.2,0,0,0,2.52.87h7.12a18.18,18.18,0,0,1,3.58.42,9.77,9.77,0,0,1,3.83,1.75,10.11,10.11,0,0,1,3,3.84,16.67,16.67,0,0,1,1.3,6.79V36a16,16,0,0,1-1.32,6.75,11.22,11.22,0,0,1-3,4,9.87,9.87,0,0,1-3.82,1.9,14.87,14.87,0,0,1-3.59.5h-17.9V42l17.42.06a6.59,6.59,0,0,0,2.46-1,7,7,0,0,0,1.7-1.89,6.17,6.17,0,0,0,.77-3.33,6,6,0,0,0-.77-3.31,4.71,4.71,0,0,0-1.7-1.62,5.84,5.84,0,0,0-2.4-.69h-7.15a17,17,0,0,1-3.62-.45,9.43,9.43,0,0,1-3.84-1.88,11.2,11.2,0,0,1-3.08-4A15.62,15.62,0,0,1,221.46,17.09Z"/><path class="cls-7" d="M255.34,11.29V4.05H287.5v7.24H275V49.13h-7.3V11.29Z"/><path class="cls-8" d="M56.78,13.41a2.34,2.34,0,0,0-2,1.09H40.12a20.07,20.07,0,0,0-1.32-3.33H47a2.36,2.36,0,1,0,0-2.54h-9.7a20.3,20.3,0,0,0-2.37-2.75c-.21-.21-.44-.38-.66-.58H40.1a1.27,1.27,0,1,0,0-2.54H30.84A19.92,19.92,0,0,0,18,.16,19.49,19.49,0,0,0,5,7.16,19.71,19.71,0,0,0,.37,24.09c1.38,7.5,5.73,12.69,12.79,15.53a19.74,19.74,0,0,0,13.22.51,19.37,19.37,0,0,0,5.26-2.44L33,39.1a5.3,5.3,0,0,0,.38.43l2.13,2.12.49.51h0c3,3,6,6,9,9a4.34,4.34,0,1,0,6.07-6.21l-9.33-9.32h0l-.38-.38c-.59-.58-1.17-1.17-1.76-1.76l-.25-.24-1.62-1.6a20.15,20.15,0,0,0,1.87-3.67H43.9a2.31,2.31,0,0,0,2,1.09,2.36,2.36,0,1,0-2-3.63H40.39a20.07,20.07,0,0,0,.48-2.91h6.05a1.27,1.27,0,0,0,0-2.54H41V19.4c0-.39-.06-.77-.1-1.16s-.12-.8-.18-1.2H54.8a2.36,2.36,0,1,0,2-3.63Zm-36.3,22.4A15.3,15.3,0,1,1,35.82,20.53,15.3,15.3,0,0,1,20.48,35.81Z"/><rect class="cls-9" x="48.93" y="20.07" width="4.44" height="2.54" rx="1.27"/></g></g></svg>