<?xml version="1.0" encoding="utf-8"?>
<!-- Generator: Adobe Illustrator 23.0.6, SVG Export Plug-In . SVG Version: 6.00 Build 0)  -->
<svg version="1.1" id="Layer_1" xmlns="http://www.w3.org/2000/svg" xmlns:xlink="http://www.w3.org/1999/xlink" x="0px" y="0px"
	 viewBox="0 0 287.5 52.4" style="enable-background:new 0 0 287.5 52.4;" xml:space="preserve">
<style type="text/css">
	.st0{fill:#FFFFFF;}
</style>
<title>Asset 4</title>
<g>
	<g id="Layer_1-2">
		<path class="st0" d="M43.5,2.8h1.9c0.7,0,1.3,0.6,1.3,1.3v0c0,0.7-0.6,1.3-1.3,1.3h-1.9c-0.7,0-1.3-0.6-1.3-1.3v0
			C42.2,3.4,42.8,2.8,43.5,2.8z"/>
		<path class="st0" d="M67.9,49.2V4.2h7.3L94.3,36V4.1h7.6v45.1h-7.6L75.2,17.4v31.9H67.9z"/>
		<path class="st0" d="M109,49V3.8h19.3c1.2,0,2.4,0.2,3.6,0.4c1.4,0.3,2.7,0.9,3.8,1.8c1.3,1.1,2.4,2.4,3.1,4
			c0.9,2.2,1.4,4.5,1.3,6.9c0,1.4-0.1,2.8-0.5,4.1c-0.3,1-0.7,2-1.2,2.9c-0.3,0.6-0.8,1.2-1.3,1.7c-0.2,0.2-0.5,0.5-0.8,0.6v0.3
			c0.8,0.5,1.5,1.1,2,1.9c0.6,0.9,1.1,1.9,1.4,2.9c0.4,1.5,0.7,3.1,0.6,4.7c0.1,2.1-0.4,4.3-1.3,6.2c-0.7,1.5-1.8,2.9-3.1,4
			c-1.1,0.9-2.4,1.7-3.8,2.1c-1.2,0.4-2.4,0.6-3.6,0.6L109,49L109,49z M116.3,22.8h11.6l0.8-0.1c0.6-0.1,1.2-0.3,1.7-0.7
			c0.7-0.4,1.2-1.1,1.7-1.8c0.6-1,0.8-2.2,0.7-3.3c0.1-1.2-0.2-2.3-0.7-3.3c-0.4-0.7-1-1.3-1.7-1.7c-0.7-0.5-1.6-0.7-2.5-0.8h-11.6
			L116.3,22.8z M116.3,41.9h11.6l0.8-0.1c0.6-0.1,1.2-0.3,1.7-0.7c0.7-0.5,1.2-1.1,1.7-1.8c0.5-1,0.8-2.2,0.7-3.3
			c0.1-1.2-0.2-2.3-0.7-3.3c-0.4-0.7-1-1.3-1.7-1.8c-0.8-0.5-1.6-0.8-2.5-0.9h-11.6L116.3,41.9z"/>
		<path class="st0" d="M144.9,32.8V19.4c0.1-2.8,0.8-5.5,2-8c0.5-1,1.2-2,1.9-2.9c0.8-1,1.8-1.9,2.9-2.6c1.2-0.8,2.6-1.4,4-1.8
			c1.7-0.5,3.5-0.7,5.3-0.7h1.8c1.8,0,3.6,0.2,5.3,0.7c1.4,0.4,2.8,1,4,1.8c1.1,0.7,2,1.6,2.9,2.6c0.7,0.9,1.4,1.9,1.9,2.9
			c1.2,2.5,1.9,5.2,2,8v13.4c-0.1,2.9-0.8,5.8-2,8.5c-0.5,1.1-1.2,2.1-1.9,3.1c-0.8,1-1.8,1.9-2.8,2.7c-1.2,0.8-2.5,1.5-3.9,1.9
			c-1.7,0.5-3.5,0.8-5.3,0.8H161c-1.8,0-3.6-0.2-5.3-0.8c-1.4-0.4-2.8-1.1-4-1.9c-1.1-0.7-2.1-1.7-2.9-2.7c-0.8-1-1.4-2-1.9-3.1
			C145.7,38.6,145,35.8,144.9,32.8z M152.2,31.2c0.1,1.9,0.5,3.7,1.2,5.5c0.3,0.7,0.7,1.4,1.1,2.1c0.5,0.7,1.1,1.3,1.7,1.9
			c0.7,0.6,1.5,1.1,2.4,1.4c1,0.4,2.1,0.7,3.2,0.7l0.1,0.1v-0.1c1.1,0,2.2-0.3,3.2-0.7c0.9-0.4,1.7-0.8,2.4-1.4
			c0.7-0.5,1.2-1.2,1.7-1.9c0.4-0.7,0.8-1.4,1.2-2.1c0.8-1.7,1.2-3.6,1.2-5.5v-9.6c-0.1-1.8-0.5-3.5-1.2-5.1
			c-0.3-0.7-0.7-1.3-1.2-1.9c-0.5-0.7-1.1-1.2-1.7-1.7c-0.7-0.6-1.5-1-2.4-1.4c-1-0.4-2.1-0.6-3.2-0.7v-0.1l-0.1,0.1
			c-1.1,0.1-2.2,0.3-3.2,0.7c-0.8,0.3-1.6,0.8-2.4,1.4c-0.7,0.5-1.2,1.1-1.7,1.8c-0.4,0.6-0.8,1.2-1.1,1.9c-0.7,1.6-1.2,3.3-1.2,5.1
			L152.2,31.2z"/>
		<path class="st0" d="M183.6,32.8V19.4c0.1-2.8,0.8-5.5,2-8c0.5-1,1.2-2,1.9-2.9c0.8-1,1.8-1.9,2.9-2.6c1.2-0.8,2.6-1.4,4-1.8
			c1.7-0.5,3.5-0.7,5.3-0.7h1.8c1.8,0,3.6,0.2,5.3,0.7c1.4,0.4,2.8,1,4,1.8c1.1,0.7,2,1.6,2.9,2.6c0.7,0.9,1.4,1.9,1.9,2.9
			c1.2,2.5,1.9,5.2,2.1,8v13.4c-0.1,2.9-0.8,5.8-2.1,8.5c-0.5,1.1-1.2,2.1-1.9,3.1c-0.8,1-1.8,1.9-2.8,2.7c-1.2,0.8-2.5,1.5-3.9,1.9
			c-1.7,0.5-3.5,0.8-5.3,0.8h-1.9c-1.8,0-3.6-0.2-5.3-0.8c-1.4-0.4-2.8-1.1-4-1.9c-1.1-0.8-2.1-1.7-2.9-2.7c-0.8-1-1.4-2-1.9-3.1
			C184.3,38.6,183.7,35.8,183.6,32.8z M190.9,31.2c0.1,1.9,0.5,3.7,1.2,5.5c0.3,0.7,0.7,1.4,1.1,2.1c0.5,0.7,1.1,1.3,1.7,1.9
			c0.7,0.6,1.5,1.1,2.4,1.4c1,0.4,2.1,0.7,3.2,0.7l0.1,0.1v-0.1c1.1,0,2.2-0.3,3.2-0.7c0.9-0.4,1.7-0.8,2.4-1.4
			c0.7-0.5,1.2-1.2,1.7-1.9c0.4-0.7,0.8-1.4,1.2-2.1c0.8-1.7,1.2-3.6,1.2-5.5v-9.6c-0.1-1.8-0.5-3.5-1.2-5.1
			c-0.3-0.7-0.7-1.3-1.2-1.9c-0.5-0.7-1.1-1.2-1.7-1.7c-0.7-0.6-1.5-1-2.4-1.4c-1-0.4-2.1-0.6-3.2-0.7v-0.1l-0.1,0.1
			c-1.1,0.1-2.2,0.3-3.2,0.7c-0.9,0.3-1.7,0.8-2.4,1.4c-0.7,0.5-1.2,1.1-1.7,1.8c-0.4,0.6-0.8,1.2-1.1,1.9c-0.7,1.6-1.2,3.3-1.2,5.1
			L190.9,31.2z"/>
		<path class="st0" d="M221.5,17.1v-0.2c-0.1-2.3,0.3-4.6,1.3-6.7c0.7-1.5,1.8-2.8,3.1-3.9c1.1-0.9,2.4-1.5,3.8-1.8
			c1.2-0.3,2.4-0.4,3.6-0.4h17.9v7.2h-17.4c-0.9,0-1.7,0.3-2.5,0.8c-0.7,0.4-1.3,1-1.7,1.7c-0.6,1-0.8,2.1-0.8,3.3
			c-0.1,1.2,0.2,2.3,0.8,3.3c0.4,0.7,1,1.3,1.7,1.8c0.8,0.5,1.6,0.8,2.5,0.9h7.1c1.2,0,2.4,0.2,3.6,0.4c1.4,0.3,2.7,0.9,3.8,1.8
			c1.3,1,2.3,2.3,3,3.8c0.9,2.1,1.3,4.5,1.3,6.8V36c0.1,2.3-0.4,4.6-1.3,6.8c-0.7,1.5-1.7,2.9-3,4c-1.1,0.9-2.4,1.6-3.8,1.9
			c-1.2,0.3-2.4,0.5-3.6,0.5H223V42l17.4,0.1c0.9-0.2,1.7-0.5,2.5-1c0.7-0.5,1.3-1.2,1.7-1.9c0.6-1,0.8-2.2,0.8-3.3
			c0.1-1.2-0.2-2.3-0.8-3.3c-0.4-0.7-1-1.2-1.7-1.6c-0.7-0.4-1.6-0.6-2.4-0.7h-7.1c-1.2,0-2.4-0.2-3.6-0.5c-1.4-0.3-2.7-1-3.8-1.9
			c-1.3-1.1-2.4-2.4-3.1-4C221.8,21.7,221.4,19.4,221.5,17.1z"/>
		<path class="st0" d="M255.3,11.3V4.1h32.2v7.2H275v37.8h-7.3V11.3H255.3z"/>
		<path class="st0" d="M56.8,13.4c-0.8,0-1.6,0.4-2,1.1H40.1c-0.3-1.1-0.8-2.3-1.3-3.3H47c0.7,1.1,2.2,1.4,3.3,0.7
			c1.1-0.7,1.4-2.2,0.7-3.3s-2.2-1.4-3.3-0.7c-0.3,0.2-0.5,0.4-0.7,0.7h-9.7c-0.7-1-1.5-1.9-2.4-2.8c-0.2-0.2-0.4-0.4-0.7-0.6h5.8
			c0.7,0,1.3-0.6,1.3-1.3s-0.6-1.3-1.3-1.3h-9.3C27,0.5,22.5-0.4,18,0.2c-5.1,0.5-9.8,3.1-13,7C0.9,11.8-0.8,18,0.4,24.1
			c1.4,7.5,5.7,12.7,12.8,15.5c4.2,1.7,8.9,1.9,13.2,0.5c1.9-0.5,3.6-1.4,5.3-2.4l1.4,1.4c0.1,0.2,0.2,0.3,0.4,0.4l2.1,2.1l0.5,0.5
			l0,0c3,3,6,6,9,9c1.7,1.7,4.5,1.6,6.1-0.1s1.6-4.5-0.1-6.1l0,0l-9.3-9.3l0,0l-0.4-0.4c-0.6-0.6-1.2-1.2-1.8-1.8l-0.2-0.2l-1.6-1.6
			c0.7-1.2,1.4-2.4,1.9-3.7h4.3c0.4,0.7,1.2,1.1,2,1.1c1.3,0,2.4-1.1,2.3-2.4c0-1.3-1.1-2.4-2.4-2.3c-0.8,0-1.5,0.4-2,1.1h-3.5
			c0.2-1,0.4-1.9,0.5-2.9h6c0.7,0,1.3-0.6,1.3-1.3S47.6,20,46.9,20H41v-0.6c0-0.4-0.1-0.8-0.1-1.2s-0.1-0.8-0.2-1.2h14.1
			c0.7,1.1,2.2,1.4,3.3,0.7c1.1-0.7,1.4-2.2,0.7-3.3C58.3,13.8,57.6,13.4,56.8,13.4L56.8,13.4z M20.5,35.8
			c-8.4,0-15.3-6.9-15.3-15.3c0-8.4,6.9-15.3,15.3-15.3c8.4,0,15.3,6.9,15.3,15.3C35.8,29,29,35.8,20.5,35.8
			C20.5,35.8,20.5,35.8,20.5,35.8z"/>
		<path class="st0" d="M50.2,20.1h1.9c0.7,0,1.3,0.6,1.3,1.3l0,0c0,0.7-0.6,1.3-1.3,1.3h-1.9c-0.7,0-1.3-0.6-1.3-1.3l0,0
			C48.9,20.6,49.5,20.1,50.2,20.1z"/>
	</g>
</g>
</svg>
