<svg id="Layer_1" data-name="Layer 1" xmlns="http://www.w3.org/2000/svg" viewBox="0 0 2389.25 415.22"><defs><style>.cls-1,.cls-4{font-size:70px;font-family:ArialNarrow, Arial Narrow;}.cls-1,.cls-3,.cls-4{fill:#2f4f59;}.cls-1{text-decoration:underline;}.cls-2{fill:#fff;stroke:#000;stroke-miterlimit:10;stroke-width:0.25px;}.cls-5{fill:#ffc400;}.cls-6{fill:#364e58;}.cls-7{fill:#00beb1;}</style></defs><title>conventional</title><text class="cls-1" transform="translate(0 60.06)">Conventional</text><line class="cls-2" x1="2389.13" y1="173.68" x2="2389.13" y2="189.68"/><path class="cls-3" d="M1143,340.35s4.79-67-65.58-98.13c0,0-34.94,33.5-84.73,0,0,0-59.35,23.93-66.06,98.13Z" transform="translate(-91.37 -12.82)"/><circle class="cls-3" cx="943.52" cy="172.52" r="58.4"/><text class="cls-4" transform="translate(886.53 393.75)">User</text><polygon class="cls-3" points="1094.43 150.89 1211.79 150.89 1211.79 123.78 1259.12 171.11 1213.12 217.12 1213.12 192.67 1094.43 192.67 1094.43 150.89"/><polygon class="cls-3" points="1248.4 290.75 1131.04 290.75 1131.04 317.86 1083.7 270.53 1129.71 224.52 1129.71 248.97 1248.4 248.97 1248.4 290.75"/><text class="cls-4" transform="translate(1301.37 390.51) rotate(-0.13)">Server</text><path class="cls-5" d="M1568.79,165.1s-29.71-36.12-69.32-39-59.42,11.65-59.42,11.65-40.2,21.56-48.36,47.19h150.17S1564.46,178.16,1568.79,165.1Z" transform="translate(-91.37 -12.82)"/><path class="cls-6" d="M1384,205.63h133s23.18,6.29,23.43,24.68-19.9,28.46-19.9,28.46H1384S1375.43,235.35,1384,205.63Z" transform="translate(-91.37 -12.82)"/><path class="cls-7" d="M1568.79,299.45s-29.71,36.39-69.32,39.32S1440.05,327,1440.05,327s-40.2-21.71-48.36-47.54h150.17S1564.46,286.29,1568.79,299.45Z" transform="translate(-91.37 -12.82)"/></svg>