<svg id="Layer_1" data-name="Layer 1" xmlns="http://www.w3.org/2000/svg" viewBox="0 0 1845.86 461.32"><defs><style>.cls-1,.cls-4,.cls-5{fill:#2f4f59;}.cls-2{fill:#0076cc;}.cls-3{fill:#f0f0f0;}.cls-4,.cls-5{font-size:70px;font-family:ArialNarrow, Arial Narrow;}.cls-5{text-decoration:underline;}</style></defs><title>conventional</title><path class="cls-1" d="M883.22,374.13s4.79-67-65.58-98.13c0,0-34.94,33.51-84.72,0,0,0-59.36,23.94-66.06,98.13Z" transform="translate(-91.37 -12.82)"/><circle class="cls-1" cx="683.7" cy="206.31" r="58.4"/><rect class="cls-2" x="1103.87" y="135.03" width="215.97" height="73.83"/><rect class="cls-3" x="1192.02" y="158.49" width="107.98" height="26.1" rx="11.84"/><circle class="cls-3" cx="1146.92" cy="171.39" r="18.73"/><rect class="cls-2" x="1103.93" y="217" width="215.97" height="73.83"/><rect class="cls-3" x="1192.08" y="240.46" width="107.98" height="26.1" rx="11.84"/><circle class="cls-3" cx="1146.9" cy="253.36" r="18.73"/><rect class="cls-2" x="1103.7" y="299.07" width="215.97" height="73.83"/><rect class="cls-3" x="1191.85" y="322.52" width="107.98" height="26.1" rx="11.84"/><circle class="cls-3" cx="1146.59" cy="335.43" r="18.73"/><polygon class="cls-1" points="975.64 245.03 998.73 245.03 998.73 206.96 1065.19 273.42 1000.6 338.01 1000.6 303.69 975.64 303.69 975.64 245.03"/><rect class="cls-1" x="836.04" y="243.03" width="69.8" height="58.04"/><text class="cls-4" transform="translate(906.23 296.46)">10</text><polygon class="cls-1" points="1511.93 237.05 1535.02 237.05 1535.02 198.99 1601.48 265.45 1536.89 330.04 1536.89 295.71 1511.93 295.71 1511.93 237.05"/><rect class="cls-1" x="1372.33" y="235.05" width="69.8" height="58.04"/><text class="cls-4" transform="translate(1442.52 288.49)">10</text><text class="cls-4" transform="translate(626.71 427.54)">User</text><text class="cls-4" transform="translate(1127.38 439.86)">Server</text><path class="cls-1" d="M1937.16,374.46s4.79-67-65.57-98.13c0,0-34.95,33.51-84.73,0,0,0-59.36,23.94-66.06,98.13Z" transform="translate(-91.37 -12.82)"/><circle class="cls-1" cx="1737.65" cy="206.64" r="58.4"/><text class="cls-4" transform="translate(1680.65 427.87)">User</text><text class="cls-5" transform="translate(0 60.06)">Conventional</text></svg>