<svg id="Layer_1" data-name="Layer 1" xmlns="http://www.w3.org/2000/svg" viewBox="0 0 2417.18 949.29"><defs><style>.cls-1,.cls-4,.cls-9{fill:#2f4f59;}.cls-2{fill:#0076cc;}.cls-3{fill:#f0f0f0;}.cls-4,.cls-9{font-size:70px;font-family:ArialNarrow, Arial Narrow;}.cls-5,.cls-6,.cls-7,.cls-8{fill:#fff;}.cls-5,.cls-6,.cls-7{stroke:#0081cc;stroke-miterlimit:10;}.cls-5{stroke-width:30px;}.cls-6{stroke-width:13px;}.cls-7{stroke-width:15px;}.cls-9{text-decoration:underline;}</style></defs><title>flowchart</title><path class="cls-1" d="M256.54,396.15s4.79-67-65.57-98.13c0,0-34.95,33.5-84.73,0,0,0-59.36,23.93-66.06,98.13Z" transform="translate(-39.21 -65.84)"/><circle class="cls-1" cx="109.18" cy="175.31" r="58.4"/><rect class="cls-2" x="529.35" y="104.03" width="215.97" height="73.83"/><rect class="cls-3" x="617.5" y="127.49" width="107.98" height="26.1" rx="11.84"/><circle class="cls-3" cx="572.41" cy="140.39" r="18.73"/><rect class="cls-2" x="529.41" y="186" width="215.97" height="73.83"/><rect class="cls-3" x="617.56" y="209.46" width="107.98" height="26.1" rx="11.84"/><circle class="cls-3" cx="572.38" cy="222.36" r="18.73"/><rect class="cls-2" x="529.18" y="268.07" width="215.97" height="73.83"/><rect class="cls-3" x="617.33" y="291.52" width="107.98" height="26.1" rx="11.84"/><circle class="cls-3" cx="572.08" cy="304.43" r="18.73"/><polygon class="cls-1" points="401.12 214.03 424.21 214.03 424.21 175.96 490.67 242.42 426.08 307.01 426.08 272.69 401.12 272.69 401.12 214.03"/><rect class="cls-1" x="261.52" y="212.03" width="69.8" height="58.04"/><text class="cls-4" transform="translate(331.71 265.46)">10</text><polygon class="cls-1" points="937.41 206.05 960.5 206.05 960.5 167.99 1026.96 234.45 962.37 299.04 962.37 264.71 937.41 264.71 937.41 206.05"/><rect class="cls-1" x="797.81" y="204.05" width="69.8" height="58.04"/><text class="cls-4" transform="translate(868 257.49)">10</text><rect class="cls-5" x="614.4" y="575.03" width="85.32" height="85.32" rx="30.34"/><circle class="cls-6" cx="657.37" cy="715.64" r="18.64"/><rect class="cls-5" x="535.4" y="762.08" width="85.32" height="85.32" rx="30.34"/><rect class="cls-5" x="699.08" y="762.08" width="85.32" height="85.32" rx="30.34"/><polyline class="cls-7" points="638.41 715.64 577.4 715.64 577.4 751.03"/><polyline class="cls-7" points="676.07 715.34 742.4 715.34 742.4 747.03"/><line class="cls-7" x1="657.37" y1="697.31" x2="657.37" y2="668.87"/><polygon class="cls-1" points="401.17 686.71 424.26 686.71 424.26 648.64 490.72 715.11 426.13 779.7 426.13 745.37 401.17 745.37 401.17 686.71"/><rect class="cls-1" x="261.57" y="684.71" width="69.8" height="58.04"/><text class="cls-4" transform="translate(331.76 738.14)">10</text><polygon class="cls-1" points="971.47 687.05 994.56 687.05 994.56 648.98 1061.02 715.44 996.43 780.03 996.43 745.71 971.47 745.71 971.47 687.05"/><rect class="cls-1" x="817.29" y="686.05" width="48.39" height="58.04"/><text class="cls-4" transform="translate(870.06 738.48)">100</text><rect class="cls-2" x="1100.72" y="594.05" width="215.97" height="73.83"/><rect class="cls-3" x="1188.87" y="617.5" width="107.98" height="26.1" rx="11.84"/><circle class="cls-3" cx="1143.77" cy="630.41" r="18.73"/><rect class="cls-2" x="1100.78" y="676.01" width="215.97" height="73.83"/><rect class="cls-3" x="1188.93" y="699.47" width="107.98" height="26.1" rx="11.84"/><circle class="cls-3" cx="1143.75" cy="712.38" r="18.73"/><rect class="cls-2" x="1100.55" y="758.08" width="215.97" height="73.83"/><rect class="cls-3" x="1188.7" y="781.54" width="107.98" height="26.1" rx="11.84"/><circle class="cls-3" cx="1143.44" cy="794.44" r="18.73"/><polygon class="cls-1" points="1510.14 688.95 1533.23 688.95 1533.23 650.88 1599.7 717.35 1535.11 781.93 1535.11 747.61 1510.14 747.61 1510.14 688.95"/><rect class="cls-1" x="1355.96" y="687.95" width="48.39" height="58.04"/><text class="cls-4" transform="translate(1408.74 740.38)">100</text><polygon class="cls-2" points="1705.67 606.52 1839.23 606.52 1897.4 717.46 1839.23 828.41 1705.67 828.41 1647.5 717.46 1705.67 606.52"/><polygon class="cls-8" points="1719.13 624.87 1763.85 624.87 1763.85 679.91 1748.37 679.91 1741.49 688.51 1763.85 688.51 1763.85 717.75 1741.49 717.75 1731.17 697.11 1703.65 697.11 1696.77 709.15 1722.57 709.15 1734.61 728.07 1763.85 728.07 1763.85 776.23 1727.73 776.23 1734.61 788.27 1763.85 788.27 1763.85 808.91 1719.13 805.47 1684.73 743.55 1708.81 743.55 1724.29 762.47 1748.37 762.47 1748.37 746.99 1720.85 746.99 1712.25 731.51 1674.41 729.79 1665.81 714.31 1689.89 678.19 1729.45 678.19 1738.05 659.27 1748.37 659.27 1748.37 647.23 1732.89 647.23 1720.85 662.71 1700.21 662.71 1719.13 624.87"/><polygon class="cls-8" points="1825.58 625.17 1780.7 625.17 1780.7 680.21 1796.24 680.21 1803.14 688.81 1780.7 688.81 1780.7 718.05 1803.14 718.05 1813.5 697.41 1841.12 697.41 1848.02 709.45 1822.13 709.45 1810.05 728.37 1780.7 728.37 1780.7 776.53 1816.95 776.53 1810.05 788.57 1780.7 788.57 1780.7 809.21 1825.58 805.77 1860.1 743.85 1835.94 743.85 1820.4 762.77 1796.24 762.77 1796.24 747.29 1823.86 747.29 1832.48 731.81 1870.46 730.09 1879.09 714.61 1854.92 678.49 1815.22 678.49 1806.59 659.57 1796.24 659.57 1796.24 647.53 1811.77 647.53 1823.86 663.01 1844.57 663.01 1825.58 625.17"/><polygon class="cls-1" points="2084.56 688.11 2107.65 688.11 2107.65 650.05 2174.11 716.51 2109.53 781.1 2109.53 746.77 2084.56 746.77 2084.56 688.11"/><rect class="cls-1" x="1944.97" y="686.11" width="69.8" height="58.04"/><text class="cls-4" transform="translate(2015.16 739.55)">10</text><text class="cls-4" transform="translate(52.19 396.54)">User</text><text class="cls-4" transform="translate(552.86 408.86)">Server</text><path class="cls-1" d="M1310.49,396.48s4.78-67-65.58-98.13c0,0-35,33.51-84.73,0,0,0-59.36,23.93-66.06,98.13Z" transform="translate(-39.21 -65.84)"/><circle class="cls-1" cx="1163.13" cy="175.64" r="58.4"/><text class="cls-4" transform="translate(1106.14 396.87)">User</text><path class="cls-1" d="M255.58,857.25s4.78-67-65.58-98.13c0,0-34.95,33.5-84.73,0,0,0-59.36,23.93-66.06,98.13Z" transform="translate(-39.21 -65.84)"/><circle class="cls-1" cx="108.22" cy="636.41" r="58.4"/><text class="cls-4" transform="translate(51.23 857.64)">User</text><path class="cls-1" d="M2456.32,870.07s4.79-67-65.58-98.13c0,0-34.94,33.51-84.72,0,0,0-59.36,23.94-66.06,98.13Z" transform="translate(-39.21 -65.84)"/><circle class="cls-1" cx="2308.96" cy="649.23" r="58.4"/><text class="cls-4" transform="translate(2251.97 870.46)">User</text><text class="cls-4" transform="translate(1125.2 905.96)">Server</text><text class="cls-4" transform="translate(571.11 927.83)">Proxy</text><text class="cls-4" transform="translate(1698.27 905.83)">Model</text><text class="cls-9" transform="translate(25.48 60.06)">Conventional</text><text class="cls-9" transform="translate(25.15 516.14)">NBoost</text></svg>