<svg id="Layer_1" data-name="Layer 1" xmlns="http://www.w3.org/2000/svg" viewBox="0 0 2388.78 437.5"><defs><style>.cls-1,.cls-3{fill:#fff;}.cls-1{stroke:#000;stroke-miterlimit:10;stroke-width:0.25px;}.cls-2,.cls-4,.cls-5{fill:#2f4f59;}.cls-4,.cls-5{font-size:70px;font-family:ArialNarrow, Arial Narrow;}.cls-5{text-decoration:underline;}.cls-6{fill:#ffc400;}.cls-7{fill:#364e58;}.cls-8{fill:#00beb1;}</style></defs><title>nboost</title><line class="cls-1" x1="2388.65" y1="174.18" x2="2388.65" y2="190.18"/><polygon class="cls-2" points="1082.51 116.44 1216.08 116.44 1274.25 227.39 1216.08 338.33 1082.51 338.33 1024.35 227.39 1082.51 116.44"/><polygon class="cls-3" points="1095.98 134.8 1140.7 134.8 1140.7 189.84 1125.22 189.84 1118.34 198.44 1140.7 198.44 1140.7 227.68 1118.34 227.68 1108.02 207.03 1080.5 207.03 1073.62 219.07 1099.42 219.07 1111.46 238 1140.7 238 1140.7 286.15 1104.58 286.15 1111.46 298.19 1140.7 298.19 1140.7 318.83 1095.98 315.39 1061.58 253.47 1085.66 253.47 1101.14 272.39 1125.22 272.39 1125.22 256.92 1097.7 256.92 1089.1 241.44 1051.26 239.72 1042.66 224.24 1066.74 188.12 1106.3 188.12 1114.9 169.19 1125.22 169.19 1125.22 157.16 1109.74 157.16 1097.7 172.63 1077.06 172.63 1095.98 134.8"/><polygon class="cls-3" points="1202.43 135.09 1157.55 135.09 1157.55 190.13 1173.08 190.13 1179.99 198.73 1157.55 198.73 1157.55 227.97 1179.99 227.97 1190.35 207.33 1217.96 207.33 1224.87 219.37 1198.98 219.37 1186.89 238.29 1157.55 238.29 1157.55 286.45 1193.8 286.45 1186.89 298.49 1157.55 298.49 1157.55 319.13 1202.43 315.69 1236.95 253.77 1212.78 253.77 1197.25 272.69 1173.08 272.69 1173.08 257.21 1200.7 257.21 1209.33 241.73 1247.31 240.01 1255.94 224.53 1231.77 188.41 1192.07 188.41 1183.44 169.49 1173.08 169.49 1173.08 157.45 1188.62 157.45 1200.7 172.93 1221.41 172.93 1202.43 135.09"/><text class="cls-4" transform="translate(1075.12 415.75)">Model</text><text class="cls-5" transform="translate(0 60.06)">NBoost</text><path class="cls-2" d="M869.38,350.14s4.79-67-65.57-98.13c0,0-34.95,33.5-84.73,0,0,0-59.36,23.93-66.06,98.13Z" transform="translate(-91.85 -12.32)"/><circle class="cls-2" cx="669.39" cy="182.81" r="58.4"/><text class="cls-4" transform="translate(612.4 416.04)">User</text><polygon class="cls-2" points="820.3 161.18 937.66 161.18 937.66 134.06 984.99 181.4 938.99 227.4 938.99 202.96 820.3 202.96 820.3 161.18"/><polygon class="cls-2" points="974.27 301.04 856.91 301.04 856.91 328.15 809.58 280.81 855.58 234.81 855.58 259.26 974.27 259.26 974.27 301.04"/><polygon class="cls-2" points="1313.04 159.25 1430.4 159.25 1430.4 132.14 1477.73 179.47 1431.73 225.48 1431.73 201.03 1313.04 201.03 1313.04 159.25"/><polygon class="cls-2" points="1467.01 299.11 1349.65 299.11 1349.65 326.22 1302.31 278.89 1348.32 232.89 1348.32 257.33 1467.01 257.33 1467.01 299.11"/><text class="cls-4" transform="translate(1553.24 406.8) rotate(-0.13)">Server</text><path class="cls-6" d="M1819.14,168.89s-29.71-36.12-69.33-39-59.42,11.65-59.42,11.65-40.2,21.56-48.35,47.19h150.17S1814.81,182,1819.14,168.89Z" transform="translate(-91.85 -12.32)"/><path class="cls-7" d="M1634.33,209.42h133s23.17,6.29,23.42,24.68-19.89,28.46-19.89,28.46H1634.33S1625.77,239.14,1634.33,209.42Z" transform="translate(-91.85 -12.32)"/><path class="cls-8" d="M1819.14,303.24s-29.71,36.39-69.33,39.32-59.42-11.74-59.42-11.74-40.2-21.71-48.35-47.54h150.17S1814.81,290.08,1819.14,303.24Z" transform="translate(-91.85 -12.32)"/></svg>