<svg id="Layer_1" data-name="Layer 1" xmlns="http://www.w3.org/2000/svg" viewBox="0 0 2417.18 475.22"><defs><style>.cls-1,.cls-2,.cls-3,.cls-8{fill:#fff;}.cls-1,.cls-2,.cls-3{stroke:#0081cc;stroke-miterlimit:10;}.cls-1{stroke-width:30px;}.cls-2{stroke-width:13px;}.cls-3{stroke-width:15px;}.cls-4,.cls-5,.cls-9{fill:#2f4f59;}.cls-5,.cls-9{font-size:70px;font-family:ArialNarrow, Arial Narrow;}.cls-6{fill:#0076cc;}.cls-7{fill:#f0f0f0;}.cls-9{text-decoration:underline;}</style></defs><title>nboost</title><rect class="cls-1" x="614.4" y="114.95" width="85.32" height="85.32" rx="30.34"/><circle class="cls-2" cx="657.37" cy="255.56" r="18.64"/><rect class="cls-1" x="535.4" y="302" width="85.32" height="85.32" rx="30.34"/><rect class="cls-1" x="699.08" y="302" width="85.32" height="85.32" rx="30.34"/><polyline class="cls-3" points="638.41 255.56 577.4 255.56 577.4 290.95"/><polyline class="cls-3" points="676.07 255.26 742.4 255.26 742.4 286.95"/><line class="cls-3" x1="657.37" y1="237.23" x2="657.37" y2="208.79"/><polygon class="cls-4" points="401.17 226.63 424.26 226.63 424.26 188.57 490.72 255.03 426.13 319.62 426.13 285.29 401.17 285.29 401.17 226.63"/><rect class="cls-4" x="261.57" y="224.63" width="69.8" height="58.04"/><text class="cls-5" transform="translate(331.76 278.07)">10</text><polygon class="cls-4" points="971.47 226.97 994.56 226.97 994.56 188.91 1061.02 255.37 996.43 319.95 996.43 285.63 971.47 285.63 971.47 226.97"/><rect class="cls-4" x="817.29" y="225.97" width="48.39" height="58.04"/><text class="cls-5" transform="translate(870.06 278.4)">100</text><rect class="cls-6" x="1100.72" y="133.97" width="215.97" height="73.83"/><rect class="cls-7" x="1188.87" y="157.42" width="107.98" height="26.1" rx="11.84"/><circle class="cls-7" cx="1143.77" cy="170.33" r="18.73"/><rect class="cls-6" x="1100.78" y="215.93" width="215.97" height="73.83"/><rect class="cls-7" x="1188.93" y="239.39" width="107.98" height="26.1" rx="11.84"/><circle class="cls-7" cx="1143.75" cy="252.3" r="18.73"/><rect class="cls-6" x="1100.55" y="298" width="215.97" height="73.83"/><rect class="cls-7" x="1188.7" y="321.46" width="107.98" height="26.1" rx="11.84"/><circle class="cls-7" cx="1143.44" cy="334.36" r="18.73"/><polygon class="cls-4" points="1510.14 228.87 1533.23 228.87 1533.23 190.81 1599.7 257.27 1535.11 321.86 1535.11 287.53 1510.14 287.53 1510.14 228.87"/><rect class="cls-4" x="1355.96" y="227.87" width="48.39" height="58.04"/><text class="cls-5" transform="translate(1408.74 280.31)">100</text><polygon class="cls-6" points="1705.67 146.44 1839.23 146.44 1897.4 257.39 1839.23 368.33 1705.67 368.33 1647.5 257.39 1705.67 146.44"/><polygon class="cls-8" points="1719.13 164.79 1763.85 164.79 1763.85 219.84 1748.37 219.84 1741.49 228.44 1763.85 228.44 1763.85 257.68 1741.49 257.68 1731.17 237.03 1703.65 237.03 1696.77 249.07 1722.57 249.07 1734.61 268 1763.85 268 1763.85 316.15 1727.73 316.15 1734.61 328.19 1763.85 328.19 1763.85 348.83 1719.13 345.39 1684.73 283.48 1708.81 283.48 1724.29 302.39 1748.37 302.39 1748.37 286.92 1720.85 286.92 1712.25 271.44 1674.41 269.71 1665.81 254.24 1689.89 218.12 1729.45 218.12 1738.05 199.19 1748.37 199.19 1748.37 187.16 1732.89 187.16 1720.85 202.63 1700.21 202.63 1719.13 164.79"/><polygon class="cls-8" points="1825.58 165.09 1780.7 165.09 1780.7 220.13 1796.24 220.13 1803.14 228.73 1780.7 228.73 1780.7 257.97 1803.14 257.97 1813.5 237.33 1841.12 237.33 1848.02 249.37 1822.13 249.37 1810.05 268.29 1780.7 268.29 1780.7 316.45 1816.95 316.45 1810.05 328.49 1780.7 328.49 1780.7 349.13 1825.58 345.69 1860.1 283.77 1835.94 283.77 1820.4 302.69 1796.24 302.69 1796.24 287.21 1823.86 287.21 1832.48 271.73 1870.46 270.01 1879.09 254.53 1854.92 218.41 1815.22 218.41 1806.59 199.49 1796.24 199.49 1796.24 187.45 1811.77 187.45 1823.86 202.93 1844.57 202.93 1825.58 165.09"/><polygon class="cls-4" points="2084.56 228.03 2107.65 228.03 2107.65 189.97 2174.11 256.43 2109.53 321.02 2109.53 286.69 2084.56 286.69 2084.56 228.03"/><rect class="cls-4" x="1944.97" y="226.03" width="69.8" height="58.04"/><text class="cls-5" transform="translate(2015.16 279.47)">10</text><path class="cls-4" d="M256,359.21s4.79-67-65.58-98.13c0,0-34.94,33.5-84.73,0,0,0-59.35,23.93-66,98.13Z" transform="translate(-39.64 -27.88)"/><circle class="cls-4" cx="108.22" cy="176.33" r="58.4"/><text class="cls-5" transform="translate(51.23 397.56)">User</text><path class="cls-4" d="M2456.75,372s4.78-67-65.58-98.13c0,0-35,33.51-84.73,0,0,0-59.36,23.94-66.06,98.13Z" transform="translate(-39.64 -27.88)"/><circle class="cls-4" cx="2308.96" cy="189.16" r="58.4"/><text class="cls-5" transform="translate(2251.97 410.38)">User</text><text class="cls-5" transform="translate(1125.2 445.88)">Server</text><text class="cls-5" transform="translate(588.11 453.75)">Proxy</text><text class="cls-5" transform="translate(1698.27 445.75)">Model</text><text class="cls-9" transform="translate(0.15 60.06)">NBoost</text></svg>