<svg xmlns="http://www.w3.org/2000/svg" viewBox="0 0 169.45 62.68"><defs><style>.cls-1{isolation:isolate;}.cls-2{fill:#ebfaff;}.cls-3{fill:#fff;}.cls-11,.cls-4{fill:#badbe6;}.cls-12,.cls-19,.cls-5{fill:none;}.cls-5{stroke:#747474;stroke-linecap:round;stroke-width:0.52px;}.cls-6{fill:#e1e9eb;}.cls-7{fill:#0076c2;}.cls-8{fill:#6aa5cf;}.cls-9{fill:#c5def0;}.cls-10{fill:#dfeef2;}.cls-11{stroke:#badbe6;}.cls-12{stroke:#fff;stroke-width:0.25px;}.cls-12,.cls-19{stroke-miterlimit:10;}.cls-13{fill:#ffc600;}.cls-14{fill:#3b4e57;}.cls-15{fill:#00bbb1;}.cls-16{fill:#3288fc;}.cls-17{fill:#efefef;}.cls-18{fill:#ed1703;}.cls-19{stroke:#d0d0d1;stroke-width:0.5px;}.cls-20{fill:#cfcfcf;}</style></defs><title>overview</title><g id="Shape_7" data-name="Shape 7" class="cls-1"><rect class="cls-2" x="62.21" width="70.13" height="62.68" rx="2.42"/><rect class="cls-3" x="63.29" y="5.89" width="67.91" height="54.37"/><circle class="cls-4" cx="73.95" cy="2.88" r="1.25"/><path class="cls-5" d="M96.4,29.07" transform="translate(-17.23 -13.89)"/><path class="cls-5" d="M93.3,32.17" transform="translate(-17.23 -13.89)"/><path class="cls-5" d="M96.4,35.26" transform="translate(-17.23 -13.89)"/><circle class="cls-4" cx="70.12" cy="2.88" r="1.25"/><circle class="cls-4" cx="66.15" cy="2.88" r="1.25"/><rect class="cls-6" x="85.53" y="26.45" width="20.88" height="1.08"/><rect class="cls-6" x="85.53" y="28.14" width="27.06" height="0.43"/><rect class="cls-6" x="85.53" y="29.17" width="27.06" height="0.43"/><rect class="cls-7" x="79.52" y="26.21" width="4.55" height="4.55"/><rect class="cls-6" x="85.53" y="30.1" width="27.06" height="0.43"/><rect class="cls-6" x="85.44" y="34.17" width="20.88" height="1.08"/><rect class="cls-6" x="85.44" y="35.85" width="27.06" height="0.43"/><rect class="cls-6" x="85.44" y="36.88" width="27.06" height="0.43"/><rect class="cls-8" x="79.43" y="33.92" width="4.55" height="4.55"/><rect class="cls-6" x="85.44" y="37.81" width="27.06" height="0.43"/><rect class="cls-6" x="85.44" y="41.74" width="20.88" height="1.08"/><rect class="cls-6" x="85.44" y="43.43" width="27.06" height="0.43"/><rect class="cls-6" x="85.44" y="44.46" width="27.06" height="0.43"/><rect class="cls-9" x="79.43" y="41.5" width="4.55" height="4.55"/><rect class="cls-6" x="85.44" y="45.39" width="27.06" height="0.43"/><rect class="cls-6" x="85.48" y="48.91" width="20.88" height="1.08"/><rect class="cls-6" x="85.48" y="50.59" width="27.06" height="0.43"/><rect class="cls-6" x="85.48" y="51.62" width="27.06" height="0.43"/><rect class="cls-10" x="79.48" y="48.66" width="4.55" height="4.55"/><rect class="cls-6" x="85.48" y="52.56" width="27.06" height="0.43"/><rect class="cls-11" x="76.05" y="15.18" width="43.8" height="6.19" rx="3.09"/><path class="cls-5" d="M128.58,29.07" transform="translate(-17.23 -13.89)"/><path class="cls-5" d="M128.58,29.07" transform="translate(-17.23 -13.89)"/><path class="cls-3" d="M98.59,35.26H96.4a3.09,3.09,0,0,1-3.1-3.09h0a3.1,3.1,0,0,1,3.1-3.1h2.19" transform="translate(-17.23 -13.89)"/><circle class="cls-12" cx="114.89" cy="17.69" r="1.46"/><rect class="cls-3" x="132.82" y="33.05" width="1.82" height="0.36" transform="translate(45.43 -98.72) rotate(45)"/><rect class="cls-3" x="78.65" y="15.18" width="32.71" height="6.19"/><rect class="cls-3" x="63.29" y="58.68" width="67.91" height="3.16" rx="1.54"/><rect class="cls-8" x="19.25" y="18.27" width="4.55" height="4.55"/><rect class="cls-9" x="19.87" y="50.9" width="4.55" height="4.55"/><rect class="cls-10" x="12.7" y="57.24" width="4.55" height="4.55"/><rect class="cls-9" x="3.61" y="30.94" width="4.55" height="4.55"/><rect class="cls-7" x="7.55" y="23.74" width="4.55" height="4.55"/><rect class="cls-10" x="28.53" y="27.33" width="4.55" height="4.55"/><rect class="cls-8" x="40.66" y="53.17" width="4.55" height="4.55"/><rect class="cls-9" x="34.57" y="30.4" width="4.55" height="4.55"/><path class="cls-13" d="M39.92,42.49a4.7,4.7,0,0,0-2.84-1.6,3.8,3.8,0,0,0-2.43.48s-1.64.88-2,1.93h6.14S39.74,43,39.92,42.49Z" transform="translate(-17.23 -13.89)"/><path class="cls-14" d="M32.36,44.14H37.8s1,.26,1,1a1.47,1.47,0,0,1-.82,1.17H32.36A3.82,3.82,0,0,1,32.36,44.14Z" transform="translate(-17.23 -13.89)"/><path class="cls-15" d="M39.92,48a4.7,4.7,0,0,1-2.84,1.61,3.8,3.8,0,0,1-2.43-.48s-1.64-.89-2-2h6.14S39.74,47.44,39.92,48Z" transform="translate(-17.23 -13.89)"/><path class="cls-16" d="M33.1,57.92a4.34,4.34,0,0,0-3.22-2.64c-2.39-.39-3.65.86-4.5,2.54a4.15,4.15,0,0,0,.26,3.58,5,5,0,0,0,3,2,56.75,56.75,0,0,0,5.83,0,3.14,3.14,0,0,0,2.28-2.5,2.85,2.85,0,0,0-1.78-2.79A4.23,4.23,0,0,0,33.1,57.92Z" transform="translate(-17.23 -13.89)"/><circle class="cls-17" cx="11.98" cy="45.44" r="2.16"/><circle class="cls-16" cx="11.98" cy="45.44" r="1.35"/><rect class="cls-17" x="30.24" y="61.13" width="2.11" height="0.81" rx="0.32" transform="translate(35.45 -18) rotate(45)"/><path class="cls-18" d="M51.33,58.43l-4.92,5.32,6.19-2.84A4.88,4.88,0,0,0,51.33,58.43Z" transform="translate(-17.23 -13.89)"/><path class="cls-18" d="M47.68,56.85a4.88,4.88,0,0,0-1.92.39L45.1,62.8l3.29-5.89A4,4,0,0,0,47.68,56.85Z" transform="translate(-17.23 -13.89)"/><path class="cls-18" d="M52.64,61.21l-5.85,3.27,5.49-.65a5,5,0,0,0,.41-2A4.51,4.51,0,0,0,52.64,61.21Z" transform="translate(-17.23 -13.89)"/><path class="cls-18" d="M50.48,66a5.1,5.1,0,0,0,1.58-1.72l-5.14,1Z" transform="translate(-17.23 -13.89)"/><path class="cls-18" d="M48.71,57l-2.86,6.21,5.32-4.91A5,5,0,0,0,48.71,57Z" transform="translate(-17.23 -13.89)"/><path class="cls-18" d="M48.11,66.84a5.1,5.1,0,0,0,1.57-.39l-2.89-.34Z" transform="translate(-17.23 -13.89)"/><path class="cls-18" d="M43.12,59.81a5,5,0,0,0-.42,1.6l.78,1.39Z" transform="translate(-17.23 -13.89)"/><path class="cls-18" d="M45.32,57.44A4.83,4.83,0,0,0,43.57,59l.73,3.65Z" transform="translate(-17.23 -13.89)"/><rect class="cls-9" y="44.27" width="4.55" height="4.55"/><ellipse class="cls-9" cx="155.81" cy="28.21" rx="9.21" ry="8.86"/><path class="cls-9" d="M186.68,60.68s.07-7.18-3.71-8.19a7.17,7.17,0,0,0-6.3,1.2,10.84,10.84,0,0,1-3.63.38,9.54,9.54,0,0,1-5.37-1.58c-2.46-1.38-6,.7-6,.7s-2.2,1.57-2.08,7.49" transform="translate(-17.23 -13.89)"/><rect class="cls-10" x="4.94" y="52.23" width="4.55" height="4.55"/><rect class="cls-10" x="26.34" y="35.04" width="4.55" height="4.55"/><path class="cls-19" d="M60.59,55.64S72.61,42,94.38,42" transform="translate(-17.23 -13.89)"/><rect class="cls-7" x="40.66" y="39.04" width="4.55" height="4.55"/><polygon class="cls-20" points="78.75 28.08 75.81 28.92 75.55 27.35 78.75 28.08"/><path class="cls-19" d="M41,34.44S66.86,50,94.38,50.09" transform="translate(-17.23 -13.89)"/><polygon class="cls-20" points="78.75 36.01 75.81 36.85 75.55 35.28 78.75 36.01"/><path class="cls-19" d="M50.3,71.14s13.86-13.82,43-13.82" transform="translate(-17.23 -13.89)"/><polygon class="cls-20" points="78.33 43.37 75.38 44.21 75.12 42.64 78.33 43.37"/><rect class="cls-9" x="30.23" y="55.45" width="4.55" height="4.55"/><path class="cls-19" d="M47.32,51.21A52.72,52.72,0,0,0,92.77,64.7" transform="translate(-17.23 -13.89)"/><polygon class="cls-20" points="77.65 50.88 74.7 51.73 74.44 50.15 77.65 50.88"/></g></svg>