<svg id="Layer_1" data-name="Layer 1" xmlns="http://www.w3.org/2000/svg" xmlns:xlink="http://www.w3.org/1999/xlink" viewBox="0 0 1107.58 413.01"><defs><style>.cls-1,.cls-15{fill:#fff;}.cls-1,.cls-2,.cls-4{stroke:#000;stroke-miterlimit:10;}.cls-1,.cls-2{stroke-width:0.5px;}.cls-2{fill:#a8a8a8;}.cls-3{fill:#1c87bd;}.cls-4{fill:none;}.cls-5{fill:url(#linear-gradient);}.cls-6{fill:url(#linear-gradient-2);}.cls-7{fill:url(#linear-gradient-3);}.cls-8{fill:url(#linear-gradient-4);}.cls-9{fill:url(#linear-gradient-5);}.cls-10{fill:url(#linear-gradient-6);}.cls-11{fill:url(#linear-gradient-7);}.cls-12{fill:url(#linear-gradient-8);}.cls-13{fill:url(#linear-gradient-9);}.cls-14{fill:url(#linear-gradient-10);}.cls-16{fill:#342d2d;}.cls-17{fill:#115273;}.cls-18{fill:#4bafe3;}</style><linearGradient id="linear-gradient" x1="569.68" y1="660.31" x2="609.73" y2="660.31" gradientTransform="matrix(1, 0, 0, -1, -128.42, 694)" gradientUnits="userSpaceOnUse"><stop offset="0" stop-color="#1b75bc"/><stop offset="1" stop-color="#27aae1"/></linearGradient><linearGradient id="linear-gradient-2" x1="665.03" y1="601.62" x2="753.49" y2="601.62" gradientTransform="matrix(1, 0, 0, -1, 0, 1026)" xlink:href="#linear-gradient"/><linearGradient id="linear-gradient-3" x1="771.87" y1="602.34" x2="852.68" y2="602.34" gradientTransform="matrix(1, 0, 0, -1, 0, 1026)" xlink:href="#linear-gradient"/><linearGradient id="linear-gradient-4" x1="865.32" y1="601.86" x2="953.49" y2="601.86" gradientTransform="matrix(1, 0, 0, -1, 0, 1026)" xlink:href="#linear-gradient"/><linearGradient id="linear-gradient-5" x1="965.82" y1="601.87" x2="1054.04" y2="601.87" gradientTransform="matrix(1, 0, 0, -1, 0, 1026)" xlink:href="#linear-gradient"/><linearGradient id="linear-gradient-6" x1="1064.25" y1="601.83" x2="1145.27" y2="601.83" gradientTransform="matrix(1, 0, 0, -1, 0, 1026)" xlink:href="#linear-gradient"/><linearGradient id="linear-gradient-7" x1="1152.38" y1="601.86" x2="1236" y2="601.86" gradientTransform="matrix(1, 0, 0, -1, 0, 1026)" xlink:href="#linear-gradient"/><linearGradient id="linear-gradient-8" x1="488.45" y1="602.9" x2="642.25" y2="602.9" gradientTransform="matrix(1, 0, 0, -1, 0, 1026)" xlink:href="#linear-gradient"/><linearGradient id="linear-gradient-9" x1="587.16" y1="615.51" x2="627.22" y2="615.51" gradientTransform="matrix(1, 0, 0, -1, 0, 1026)" xlink:href="#linear-gradient"/><linearGradient id="linear-gradient-10" x1="0" y1="130.5" x2="293.94" y2="130.5" gradientTransform="matrix(1, 0, 0, 1, 0, 0)" xlink:href="#linear-gradient"/></defs><title>plugin</title><rect class="cls-1" x="777.11" y="169.59" width="59.76" height="59.76" rx="5.13"/><rect class="cls-1" x="786.17" y="178.06" width="40.91" height="40.91" rx="3.43"/><circle class="cls-2" cx="806.72" cy="197.62" r="14.01"/><path class="cls-3" d="M946.53,521.45a14,14,0,0,0-23,.34l.12,15.84a14,14,0,0,0,23.12-.17Z" transform="translate(-128.42 -332)"/><path class="cls-4" d="M745.35,502.44" transform="translate(-128.42 -332)"/><path class="cls-4" d="M745.82,523.24" transform="translate(-128.42 -332)"/><g id="Layer_1-2" data-name="Layer 1-2"><rect class="cls-5" x="469.76" y="30.39" width="11.54" height="6.6" rx="3.3"/><path class="cls-6" d="M665,483.06V365.85h18.9l49.75,82.76V365.69h19.81V483.06H733.68l-49.75-82.84v82.84Z" transform="translate(-128.42 -332)"/><path class="cls-7" d="M771.87,482.41V364.91h50.18a49.33,49.33,0,0,1,9.39,1.09,24.45,24.45,0,0,1,10,4.61,28.22,28.22,0,0,1,7.93,10.4,41.32,41.32,0,0,1,3.28,18,36.78,36.78,0,0,1-1.35,10.69,33.94,33.94,0,0,1-3.2,7.49,18.14,18.14,0,0,1-3.43,4.5,10.17,10.17,0,0,1-2.14,1.61V424a17.19,17.19,0,0,1,5.2,5,29,29,0,0,1,3.57,7.54,39,39,0,0,1,1.58,12.15,35.84,35.84,0,0,1-3.27,16.22,31.1,31.1,0,0,1-7.93,10.4,28.32,28.32,0,0,1-10,5.41,32.37,32.37,0,0,1-9.41,1.61H771.87Zm18.9-68.17h30.06l2.16-.31a12.61,12.61,0,0,0,4.4-1.75,13.41,13.41,0,0,0,4.29-4.6A16.1,16.1,0,0,0,833.6,399a15.62,15.62,0,0,0-1.92-8.6,13.87,13.87,0,0,0-4.42-4.37,13,13,0,0,0-6.4-1.95H790.75Zm0,49.74h30.06l2.16-.31a12.61,12.61,0,0,0,4.4-1.75,13.47,13.47,0,0,0,4.29-4.62,16.23,16.23,0,0,0,1.92-8.58,15.93,15.93,0,0,0-1.92-8.69,15.51,15.51,0,0,0-4.42-4.6,18,18,0,0,0-6.4-2.42H790.75Z" transform="translate(-128.42 -332)"/><path class="cls-8" d="M865.32,440.34v-35a50.63,50.63,0,0,1,5.2-20.8,45.53,45.53,0,0,1,5-7.62,32.73,32.73,0,0,1,7.41-6.73,37.22,37.22,0,0,1,10.4-4.74,49,49,0,0,1,13.78-1.74h4.6a48.61,48.61,0,0,1,13.73,1.77,36.91,36.91,0,0,1,10.4,4.73,32.79,32.79,0,0,1,7.44,6.71,43.08,43.08,0,0,1,4.94,7.65,52.34,52.34,0,0,1,5.2,20.8v34.94a61.28,61.28,0,0,1-5.2,22.1,44,44,0,0,1-4.94,8.09,33.81,33.81,0,0,1-7.36,7,38.65,38.65,0,0,1-10.22,5.05,44.34,44.34,0,0,1-13.78,1.95h-4.81a44.45,44.45,0,0,1-13.75-1.95,40,40,0,0,1-10.41-5.05,33.83,33.83,0,0,1-7.46-7,40,40,0,0,1-4.91-8.09A57.23,57.23,0,0,1,865.32,440.34Zm18.9-4.29a38.12,38.12,0,0,0,3.2,14.23,28.24,28.24,0,0,0,2.91,5.38,26.12,26.12,0,0,0,4.5,4.89,25.14,25.14,0,0,0,6.17,3.66,24.33,24.33,0,0,0,8.29,1.82l.16.16V466a25.12,25.12,0,0,0,8.37-1.82,24,24,0,0,0,6.29-3.74,23.1,23.1,0,0,0,4.42-4.89,40.5,40.5,0,0,0,3-5.38,38.12,38.12,0,0,0,3.2-14.23V410.91a34.21,34.21,0,0,0-3.2-13.26,34.93,34.93,0,0,0-3-5,22.28,22.28,0,0,0-4.42-4.52,25.4,25.4,0,0,0-6.24-3.51,27.35,27.35,0,0,0-8.42-1.77v-.31l-.16.31a26.49,26.49,0,0,0-8.29,1.77,25.82,25.82,0,0,0-6.17,3.51,24.24,24.24,0,0,0-4.5,4.55,27.58,27.58,0,0,0-2.91,5,34.21,34.21,0,0,0-3.2,13.26Z" transform="translate(-128.42 -332)"/><path class="cls-9" d="M965.82,440.34v-35a50.63,50.63,0,0,1,5.2-20.8,46.11,46.11,0,0,1,5-7.62,32.73,32.73,0,0,1,7.41-6.73,37,37,0,0,1,10.41-4.74,48.18,48.18,0,0,1,13.78-1.76h4.6a48.74,48.74,0,0,1,13.75,1.76,36.68,36.68,0,0,1,10.4,4.74,32.56,32.56,0,0,1,7.44,6.71,42.64,42.64,0,0,1,4.94,7.64,52.24,52.24,0,0,1,5.33,20.8v35a61.19,61.19,0,0,1-5.33,22.1,44,44,0,0,1-4.94,8.09,34.14,34.14,0,0,1-7.33,7,38.83,38.83,0,0,1-10.25,5.05,44.34,44.34,0,0,1-13.78,1.95h-5a44.51,44.51,0,0,1-13.76-1.95,39.9,39.9,0,0,1-10.4-5.05,34.29,34.29,0,0,1-7.46-7,40.47,40.47,0,0,1-4.92-8.09A57.16,57.16,0,0,1,965.82,440.34Zm18.9-4.29a38.12,38.12,0,0,0,3.2,14.23,27.17,27.17,0,0,0,2.91,5.38,25.47,25.47,0,0,0,4.5,4.89,24.77,24.77,0,0,0,6.19,3.66,24,24,0,0,0,8.27,1.82l.15.16V466a25.3,25.3,0,0,0,8.4-1.82,24,24,0,0,0,6.27-3.74,23.1,23.1,0,0,0,4.42-4.89,39.34,39.34,0,0,0,3-5.38,37.93,37.93,0,0,0,3.2-14.23V410.91a34,34,0,0,0-3.2-13.26,35.79,35.79,0,0,0-3-5,22.28,22.28,0,0,0-4.42-4.52,25.58,25.58,0,0,0-6.24-3.51,27.35,27.35,0,0,0-8.43-1.77v-.31l-.15.31a26.31,26.31,0,0,0-8.27,1.77,25.75,25.75,0,0,0-6.19,3.51,23.94,23.94,0,0,0-4.5,4.55,27,27,0,0,0-2.91,5,34,34,0,0,0-3.2,13.26Z" transform="translate(-128.42 -332)"/><path class="cls-10" d="M1064.29,399.44v-.62a39.34,39.34,0,0,1,3.27-17.42,28.13,28.13,0,0,1,8-10.12,25.18,25.18,0,0,1,9.93-4.65,45.61,45.61,0,0,1,9.31-1.09h46.54v18.82h-45.21a13.07,13.07,0,0,0-6.4,1.95,13.48,13.48,0,0,0-4.39,4.37,15,15,0,0,0-2,8.45,15.35,15.35,0,0,0,2,8.61,15.7,15.7,0,0,0,4.39,4.65,16.15,16.15,0,0,0,6.55,2.26h18.52a47.07,47.07,0,0,1,9.31,1.1,25.2,25.2,0,0,1,10,4.55,26.17,26.17,0,0,1,7.8,10,43.3,43.3,0,0,1,3.38,17.66v.67a41.35,41.35,0,0,1-3.43,17.55,29.05,29.05,0,0,1-7.8,10.4,25.63,25.63,0,0,1-9.93,4.94,38.26,38.26,0,0,1-9.34,1.3h-46.54V464.21l45.3.16a17.26,17.26,0,0,0,6.39-2.6,18.21,18.21,0,0,0,4.42-4.92,16,16,0,0,0,2-8.65,15.58,15.58,0,0,0-2-8.61,12.14,12.14,0,0,0-4.42-4.21,15.14,15.14,0,0,0-6.24-1.8h-18.59a43.9,43.9,0,0,1-9.41-1.17,24.4,24.4,0,0,1-10-4.89,29.12,29.12,0,0,1-8-10.4A40.53,40.53,0,0,1,1064.29,399.44Z" transform="translate(-128.42 -332)"/><path class="cls-11" d="M1152.38,384.36V365.54H1236v18.82h-32.5v98.39h-19V384.36Z" transform="translate(-128.42 -332)"/><path class="cls-12" d="M636.09,389.87a6.09,6.09,0,0,0-5.2,2.84H592.77a52,52,0,0,0-3.43-8.66h21.32a6.14,6.14,0,1,0,1.87-8.47,6.07,6.07,0,0,0-1.87,1.87H585.44a53.24,53.24,0,0,0-6.16-7.16c-.55-.54-1.15-1-1.72-1.5h15.16a3.31,3.31,0,0,0,0-6.61H568.64a51.82,51.82,0,0,0-33.38-6.76,50.68,50.68,0,0,0-33.8,18.2,51.21,51.21,0,0,0-12,44c3.58,19.5,14.9,33,33.25,40.38a51.27,51.27,0,0,0,34.38,1.33A50.64,50.64,0,0,0,570.72,453l3.54,3.66a13.2,13.2,0,0,0,1,1.12l5.54,5.51,1.27,1.33h0l23.4,23.4a11.29,11.29,0,1,0,15.78-16.15h0L597,447.65h0l-1-1c-1.54-1.51-3-3-4.58-4.57l-.65-.63-4.21-4.16a52.55,52.55,0,0,0,4.86-9.54H602.6a6,6,0,0,0,5.2,2.83,6.14,6.14,0,1,0-5.2-9.44h-9.13a50.73,50.73,0,0,0,1.25-7.56h15.73a3.31,3.31,0,1,0,0-6.61H595.06v-1.53c0-1-.16-2-.26-3s-.31-2.08-.47-3.12h36.61a6.14,6.14,0,1,0,5.2-9.44Zm-94.38,58.25a39.79,39.79,0,1,1,39.88-39.73,39.78,39.78,0,0,1-39.88,39.73Z" transform="translate(-128.42 -332)"/><path class="cls-13" d="M619,407.19h4.94a3.3,3.3,0,0,1,3.3,3.3h0a3.3,3.3,0,0,1-3.3,3.31H619a3.31,3.31,0,0,1-3.3-3.31h0A3.3,3.3,0,0,1,619,407.19Z" transform="translate(-128.42 -332)"/></g><polygon class="cls-14" points="68.42 0 225.52 0 293.94 130.5 225.52 261 68.42 261 0 130.5 68.42 0"/><polygon class="cls-15" points="84.25 21.59 136.85 21.59 136.85 86.33 118.65 86.33 110.56 96.45 136.85 96.45 136.85 130.84 110.56 130.84 98.42 106.56 66.05 106.56 57.95 120.72 88.3 120.72 102.46 142.98 136.85 142.98 136.85 199.63 94.37 199.63 102.46 213.79 136.85 213.79 136.85 238.06 84.25 234.02 43.79 161.19 72.12 161.19 90.32 183.44 118.65 183.44 118.65 165.23 86.28 165.23 76.16 147.03 31.65 145 21.54 126.79 49.86 84.31 96.39 84.31 106.51 62.05 118.65 62.05 118.65 47.89 100.44 47.89 86.28 66.1 62 66.1 84.25 21.59"/><polygon class="cls-15" points="209.47 21.94 156.68 21.94 156.68 86.68 174.95 86.68 183.07 96.8 156.68 96.8 156.68 131.19 183.07 131.19 195.25 106.91 227.74 106.91 235.86 121.07 205.41 121.07 191.19 143.33 156.68 143.33 156.68 199.97 199.31 199.97 191.19 214.13 156.68 214.13 156.68 238.41 209.47 234.37 250.07 161.53 221.65 161.53 203.37 183.79 174.95 183.79 174.95 165.58 207.44 165.58 217.59 147.37 262.25 145.35 272.4 127.14 243.98 84.66 197.28 84.66 187.13 62.4 174.95 62.4 174.95 48.24 193.22 48.24 207.44 66.45 231.8 66.45 209.47 21.94"/><path class="cls-16" d="M695.08,696.5" transform="translate(-128.42 -332)"/><rect class="cls-17" x="117.58" y="258" width="59" height="16" rx="5.51"/><path class="cls-3" d="M264.27,605S254,746,386,745s454,0,454,0,124-5,98-181h-5s26,163-94,172-452,0-452,0-110,4-112.5-131" transform="translate(-128.42 -332)"/><rect class="cls-18" x="802.08" y="193.65" width="10.19" height="39.13" rx="3.59"/></svg>