<svg id="Layer_1" data-name="Layer 1" xmlns="http://www.w3.org/2000/svg" viewBox="0 0 3317.96 892.14"><defs><style>.cls-1{fill:#00bfb2;}.cls-2{fill:none;stroke:#000;stroke-width:8px;}.cls-2,.cls-3{stroke-miterlimit:10;}.cls-3,.cls-6{fill:#2f4f59;}.cls-3{stroke:#fff;stroke-width:4px;}.cls-4{fill:#0f2535;}.cls-5{fill:#fff;}.cls-7{fill:#e9edf2;}</style></defs><title>sailboat</title><path class="cls-1" d="M2807.68,97.49c4.1-2.85,26.55-16.06,65.17,5.43a1.33,1.33,0,0,0,.33.13,25.74,25.74,0,0,0,18.84-2.64,1.62,1.62,0,0,1,2.24,2.08c-4.1,9.35-10.17,28.83,1.61,44.12a1.62,1.62,0,0,1-.5,2.4c-4.75,2.61-19.75,8.77-43.37-1-22.47-9.3-37.14-3.58-42.6-.54A1.62,1.62,0,0,1,2807,146V98.82A1.63,1.63,0,0,1,2807.68,97.49Z" transform="translate(-497.9 -75.33)"/><path class="cls-2" d="M2779.25,804.15C2941,763.81,3180,835,3180,835c-177-223-377-703-377-703Z" transform="translate(-497.9 -75.33)"/><path class="cls-2" d="M2511.66,782.73C2328.32,431.47,2792,154,2792,154s-172.37,285.31-39.68,650.15c0,0-156.54-78.84-235.93-21" transform="translate(-497.9 -75.33)"/><path class="cls-3" d="M3108.41,839.48s11.88-81.46-71.31-125.81c0,0-45.71,37.81-103.53-7.62,0,0-74.68,23.91-89.54,114Z" transform="translate(-497.9 -75.33)"/><circle class="cls-3" cx="2492.3" cy="565.02" r="71.55"/><path class="cls-4" d="M3200,844c-9,56-28,61-28,61l-44.88-15.3L3109,916l-102,26-82-58-103,58-74-20-43-41-38,40s-128,47-132,0-99-145-99-145Z" transform="translate(-497.9 -75.33)"/><path class="cls-4" d="M2934.35,595.92l-10-27s72.82-81.66,139.37,6.35L3054,604S3009.58,569.27,2934.35,595.92Z" transform="translate(-497.9 -75.33)"/><path class="cls-5" d="M3048,606.79c-49.47-32.89-111.69-5.95-111.69-5.95s53.59,31.61,111,6.55" transform="translate(-497.9 -75.33)"/><circle class="cls-5" cx="2498.7" cy="468.52" r="4.44"/><circle class="cls-4" cx="2498.7" cy="468.52" r="2.77"/><rect class="cls-5" x="2994.4" y="547.02" width="3.8" height="23.13" transform="translate(-485.97 -135.93) rotate(1.16)"/><path class="cls-5" d="M2996,576s.62-3.34-3.3-2.86-8-5.75-8-5.75l-1.4.53c-1.36-2.27.13-6.43.13-6.43.25,1.13,3.84,3.15,3.84,3.15l-1.13.82c6.55,7.68,9.2,1,9.2,1Z" transform="translate(-497.9 -75.33)"/><path class="cls-5" d="M2996.05,576.46s-.47-3.37,3.23-2.73,7.8-5.43,7.8-5.43l1.32.58c1.37-2.21.13-6.42.13-6.42-.29,1.11-3.78,3-3.78,3l1.05.86c-6.52,7.42-8.77.66-8.77.66Z" transform="translate(-497.9 -75.33)"/><rect class="cls-5" x="2990.59" y="552.26" width="11.18" height="1.12" transform="translate(-486.08 -135.93) rotate(1.16)"/><circle class="cls-5" cx="2492.83" cy="477.24" r="1.54"/><circle class="cls-5" cx="2504.29" cy="477.47" r="1.54"/><path class="cls-5" d="M2992.43,572s3.58,2.86,3.56,4c0,0,2.3-3.31,2.87-3.85s-2.18-2.84-2.18-2.84l-4.22,1.31Z" transform="translate(-497.9 -75.33)"/><rect class="cls-4" x="2774" y="75" width="26" height="757" rx="13" transform="translate(-476.19 -192.96) rotate(2.43)"/><path class="cls-4" d="M2468.76,587.9c1.27,55.21,244.41,68,244.41,68-13.83-29.11-10.31-167.38-10.31-167.38-116.14.51-191.09-43.7-191.09-43.7S2467.52,533.81,2468.76,587.9Z" transform="translate(-497.9 -75.33)"/><rect class="cls-6" x="1737" y="773" width="23" height="99" transform="translate(-556.3 62.44) rotate(-4.44)"/><circle class="cls-6" cx="1258.1" cy="822.67" r="44"/><path class="cls-7" d="M905.17,295h307.76s7.16-57.26-73.36-46.52c0,0-32.21-87.68-112.73-25C1026.84,223.43,899.8,187.64,905.17,295Z" transform="translate(-497.9 -75.33)"/><path class="cls-7" d="M2066.79,283H2433.4s8.53-68.21-87.39-55.42c0,0-38.36-104.44-134.28-29.84C2211.73,197.74,2060.39,155.11,2066.79,283Z" transform="translate(-497.9 -75.33)"/><path class="cls-7" d="M2290.72,204h239.1s5.56-44.48-57-36.14c0,0-25-68.12-87.57-19.46C2385.25,148.4,2286.55,120.59,2290.72,204Z" transform="translate(-497.9 -75.33)"/><path class="cls-7" d="M3424.15,319h154.08s3.59-28.67-36.73-23.29c0,0-16.12-43.9-56.44-12.54C3485.06,283.17,3421.46,265.25,3424.15,319Z" transform="translate(-497.9 -75.33)"/><path class="cls-7" d="M745,868c-8-8-24,0-24,0-98,144-193,0-193,0s-27-12-30,13,63,70,63,70,91,55,173-36" transform="translate(-497.9 -75.33)"/><path class="cls-7" d="M964.57,867.62c-8-8-24,0-24,0-98,144-193,0-193,0s-27-12-30,13,63,70,63,70,91,55,173-36" transform="translate(-497.9 -75.33)"/><path class="cls-7" d="M1182.94,865.93c-8-8-24,0-24,0-98,144-193,0-193,0s-27-12-30,13,63,70,63,70,91,55,173-36" transform="translate(-497.9 -75.33)"/><path class="cls-7" d="M1402.52,865.55c-8-8-24,0-24,0-98,144-193,0-193,0s-27-12-30,13,63,70,63,70,91,55,173-36" transform="translate(-497.9 -75.33)"/><path class="cls-7" d="M1621.46,864.28c-8-8-24,0-24,0-98,144-193,0-193,0s-27-12-30,13,63,70,63,70,91,55,173-36" transform="translate(-497.9 -75.33)"/><path class="cls-7" d="M2059.4,862.21c-8-8-24,0-24,0-98,144-193,0-193,0s-27-12-30,13,63,70,63,70,91,55,173-36" transform="translate(-497.9 -75.33)"/><path class="cls-7" d="M2279,861.83c-8-8-24,0-24,0-98,144-193,0-193,0s-27-12-30,13,63,70,63,70,91,55,173-36" transform="translate(-497.9 -75.33)"/><path class="cls-7" d="M2497.76,861.5c-8-8-24,0-24,0-98,144-193,0-193,0s-27-12-30,13,63,70,63,70,91,55,173-36" transform="translate(-497.9 -75.33)"/><path class="cls-7" d="M2717.33,861.12c-8-8-24,0-24,0-98,144-193,0-193,0s-27-12-30,13,63,70,63,70,91,55,173-36" transform="translate(-497.9 -75.33)"/><path class="cls-7" d="M2935.7,859.43c-8-8-24,0-24,0-98,144-193,0-193,0s-27-12-30,13,63,70,63,70,91,55,173-36" transform="translate(-497.9 -75.33)"/><path class="cls-7" d="M3155.28,859.05c-8-8-24,0-24,0-98,144-193,0-193,0s-27-12-30,13,63,70,63,70,91,55,173-36" transform="translate(-497.9 -75.33)"/><path class="cls-7" d="M3374.21,857.78c-8-8-24,0-24,0-98,144-193,0-193,0s-27-12-30,13,63,70,63,70,91,55,173-36" transform="translate(-497.9 -75.33)"/><path class="cls-7" d="M3593.79,857.4c-8-8-24,0-24,0-98,144-193,0-193,0s-27-12-30,13,63,70,63,70,91,55,173-36" transform="translate(-497.9 -75.33)"/><path class="cls-7" d="M3578,857c7.7-8,23.1,0,23.1,0,94.34,144,185.78,0,185.78,0s26-12,28.88,13-60.64,70-60.64,70-87.6,55-166.53-36" transform="translate(-497.9 -75.33)"/><path class="cls-7" d="M1841,863.9c-8-8-24,0-24,0-98,144-193,0-193,0s-27-12-30,13,63,70,63,70,91,55,173-36" transform="translate(-497.9 -75.33)"/><rect class="cls-1" x="1499.7" y="432.06" width="455.05" height="363.77" rx="22.19" transform="translate(-540.23 60.16) rotate(-4.44)"/><path class="cls-5" d="M1806.94,493.05l9.56-.66a6.68,6.68,0,0,1,7,6.1h0a6.67,6.67,0,0,1-6.09,7l-9.56.66a6.67,6.67,0,0,1-7-6.1h0A6.67,6.67,0,0,1,1806.94,493.05Z" transform="translate(-497.9 -75.33)"/><path class="cls-5" d="M1877.51,541.81a11.61,11.61,0,0,0-9.68,6.22l-74,5.06a95.42,95.42,0,0,0-7.68-16.16l41.26-2.82a12,12,0,1,0,2.39-16.85,11.76,11.76,0,0,0-3.28,3.77l-48.81,3.33a105.84,105.84,0,0,0-13-13.26,22.32,22.32,0,0,0-3.73-2.78l29.19-2a6.56,6.56,0,0,0-.9-13.09l-46.8,3.2a102.87,102.87,0,0,0-64.73-7.7,97.79,97.79,0,0,0-63,39.69,98.89,98.89,0,0,0-17.34,86.63c9.63,37.26,33.06,61.94,69.75,73.59a97.47,97.47,0,0,0,66.59-2c9.39-3.17,17.63-8.28,25.84-13.9l7.53,6.56a3.89,3.89,0,0,0,2.15,1.88l11.29,9.84,2.69,2.35h0l48.38,42.19a21.62,21.62,0,0,0,30.66-2.6c7.47-9.11,6.51-23.2-2.6-30.66h0l-50-43.6h0l-2.15-1.88-9.67-8.43-1.08-.94-8.6-7.5c3.11-6.28,6.22-12.56,8.29-19.27l21.63-1.48a11.64,11.64,0,0,0,10.45,4.84c6.54-.44,11.69-6.36,10.74-12.87-.44-6.54-6.36-11.69-12.86-10.74a12.27,12.27,0,0,0-9.69,6.22l-17.61,1.2c.66-5.1,1.36-9.69,1.52-14.76l30.19-2.06a6.68,6.68,0,0,0,6.09-7c-.24-3.53-3.43-5.84-7-5.59l-29.69,2-.21-3c-.13-2-.77-4-.91-6a25.53,25.53,0,0,0-1.42-6l71-4.85a12,12,0,1,0,19.23-14.46,13.13,13.13,0,0,0-10.41-4.34Zm-175,125.2c-42.27,2.9-79.36-29.45-82.25-71.72S1649.76,515.93,1692,513s79.37,29.45,82.26,71.72A76.85,76.85,0,0,1,1702.56,667Z" transform="translate(-497.9 -75.33)"/><path class="cls-5" d="M1846.61,577.79l9.56-.65a6.68,6.68,0,0,1,7,6.09h0a6.67,6.67,0,0,1-6.1,7l-9.56.66a6.69,6.69,0,0,1-7-6.1h0A6.37,6.37,0,0,1,1846.61,577.79Z" transform="translate(-497.9 -75.33)"/></svg>